<svg version="1.1" id="_x32_" xmlns="http://www.w3.org/2000/svg" xmlns:xlink="http://www.w3.org/1999/xlink" width="110px" height="110px" viewBox="-179.2 -179.2 870.40 870.40" xml:space="preserve" fill="#000000">

<g id="SVGRepo_bgCarrier" stroke-width="0">

<rect x="-179.2" y="-179.2" width="870.40" height="870.40" rx="0" fill="#3DCFD3" strokewidth="0"/>

</g>

<g id="SVGRepo_tracerCarrier" stroke-linecap="round" stroke-linejoin="round"/>

<g id="SVGRepo_iconCarrier"> <style type="text/css">  .st0{fill:#000000;}  </style> <g> <path class="st0" d="M16,0v512h480V0H16z M88,476H56v-56h32V476z M88,380H56v-56h32V380z M88,284H56v-56h32V284z M88,188H56v-56h32 V188z M88,92H56V36h32V92z M392,475.313H120V276h272V475.313z M392,236H120V35.313h272V236z M456,476h-32v-56h32V476z M456,380h-32 v-56h32V380z M456,284h-32v-56h32V284z M456,188h-32v-56h32V188z M456,92h-32V36h32V92z"/> </g> </g>

</svg>